<?xml version="1.0" standalone="no"?>
<!DOCTYPE svg PUBLIC "-//W3C//DTD SVG 20010904//EN"
 "http://www.w3.org/TR/2001/REC-SVG-20010904/DTD/svg10.dtd">
<svg version="1.0" xmlns="http://www.w3.org/2000/svg"
 width="458.000000pt" height="215.000000pt" viewBox="0 0 458.000000 215.000000"
 preserveAspectRatio="xMidYMid meet">

<g transform="translate(0.000000,215.000000) scale(0.100000,-0.100000)"
fill="#000000" stroke="none">
<path d="M159 1958 c-10 -31 -7 -61 8 -76 10 -10 19 -25 21 -32 2 -8 10 -18
18 -24 14 -11 26 -58 44 -176 6 -35 15 -67 20 -70 5 -3 16 -59 24 -125 15
-123 36 -201 52 -198 5 1 13 -8 18 -20 14 -36 18 -2 7 59 -6 32 -11 77 -11
101 0 26 -5 43 -12 43 -6 0 -8 3 -5 7 4 3 3 11 -2 17 -5 6 -14 34 -19 61 -6
28 -16 68 -22 90 -6 22 -13 56 -16 75 -2 19 -9 37 -14 38 -6 2 -10 16 -10 30
0 48 -39 176 -57 189 -15 11 -41 18 -44 11z"/>
<path d="M3990 1781 c-8 -4 -33 -17 -55 -27 -22 -10 -60 -37 -84 -59 -52 -47
-141 -162 -141 -181 0 -8 -4 -14 -9 -14 -10 0 -61 -111 -61 -133 0 -8 -3 -17
-8 -19 -17 -7 -54 -170 -64 -281 -11 -121 3 -408 21 -432 4 -5 13 -30 20 -55
7 -25 17 -47 21 -50 4 -3 10 -18 14 -34 6 -23 4 -27 -8 -23 -9 4 -16 4 -16 1
0 -3 14 -10 31 -16 18 -6 28 -16 25 -23 -6 -17 97 -131 136 -151 15 -8 28 -11
28 -7 0 4 5 2 12 -5 22 -22 135 -11 188 19 8 5 30 16 48 25 19 9 46 32 60 51
15 18 33 33 40 33 6 0 12 9 12 19 0 11 5 23 10 26 6 4 25 35 42 71 17 35 35
64 40 64 4 0 8 9 8 21 0 11 9 39 19 63 11 23 23 66 27 94 3 29 10 52 13 52 8
0 31 186 31 247 0 56 -17 64 -23 10 -16 -138 -47 -264 -87 -352 -10 -22 -29
-65 -43 -95 -15 -34 -42 -71 -71 -95 -25 -22 -46 -45 -46 -50 0 -6 -30 -25
-67 -43 -76 -36 -126 -40 -181 -15 -39 17 -121 99 -122 121 0 6 -4 12 -9 12
-11 0 -49 90 -60 143 -5 23 -16 78 -25 122 -35 173 -11 413 57 569 9 21 17 42
17 45 0 4 14 23 30 41 17 18 30 37 30 41 0 13 103 109 117 109 7 0 13 3 13 8
0 10 52 32 93 39 43 7 105 -21 120 -54 5 -12 13 -23 17 -23 4 0 24 -54 46
-120 57 -176 61 -164 33 90 -17 147 -33 195 -73 214 -36 17 -139 21 -166 7z"/>
<path d="M2732 1758 c-7 -7 -12 -29 -12 -49 0 -21 -5 -39 -11 -41 -7 -2 -12
-77 -14 -213 -4 -212 -6 -246 -18 -300 -9 -38 -24 -186 -38 -384 -11 -158 -18
-181 -56 -181 -23 0 -83 -54 -83 -74 0 -9 -8 -24 -17 -34 -42 -42 -54 -111
-29 -160 24 -46 96 -100 155 -117 21 -6 40 -20 46 -33 10 -23 30 -29 40 -11 9
13 -14 71 -32 82 -7 5 -11 12 -8 16 2 5 -21 22 -53 37 -31 16 -59 31 -62 34
-3 3 -17 13 -32 23 -16 10 -28 26 -28 39 0 33 47 87 91 104 21 9 39 20 39 24
0 4 12 11 28 15 15 3 49 18 76 31 27 13 69 29 95 34 67 14 121 32 121 40 0 6
38 14 112 24 3 1 10 4 14 9 4 4 22 7 40 7 18 0 35 4 38 9 3 5 26 12 51 15 25
4 45 11 45 17 0 5 24 9 53 9 31 0 61 6 73 15 20 15 62 19 80 7 12 -7 5 -73
-16 -170 -6 -23 -10 -60 -10 -82 0 -23 -7 -52 -16 -66 -19 -29 -16 -35 13 -28
12 3 28 24 41 52 21 49 52 242 52 325 l0 47 -44 0 c-27 0 -51 -6 -60 -16 -11
-10 -38 -17 -79 -19 -75 -3 -127 -14 -127 -26 0 -5 -14 -9 -30 -9 -19 0 -40
-9 -53 -22 -31 -32 -47 -33 -47 -3 0 14 5 25 10 25 17 0 11 56 -11 107 -11 26
-34 86 -50 132 -16 47 -35 94 -43 105 -7 12 -16 34 -20 50 -8 32 -33 91 -80
191 -34 71 -43 100 -53 168 -3 20 -9 40 -14 43 -5 3 -9 14 -9 24 0 10 -4 20
-10 22 -5 2 -12 33 -14 70 -5 78 -16 104 -34 86z m94 -495 c8 -29 20 -55 25
-58 5 -4 9 -15 9 -26 0 -11 7 -30 15 -43 8 -12 26 -55 40 -96 14 -40 34 -88
45 -107 11 -19 20 -43 20 -55 0 -23 29 -90 44 -100 7 -5 7 -8 1 -8 -5 0 -4 -4
4 -9 18 -12 23 -41 8 -42 -72 -5 -141 -21 -167 -39 -14 -9 -32 -18 -40 -18 -8
-1 -40 -5 -70 -8 -90 -10 -91 -9 -55 261 7 53 19 178 35 362 l14 151 28 -56
c16 -32 35 -81 44 -109z"/>
<path d="M1228 1623 c7 -3 16 -2 19 1 4 3 -2 6 -13 5 -11 0 -14 -3 -6 -6z"/>
<path d="M1222 1599 c2 -6 8 -10 13 -10 5 0 11 4 13 10 2 6 -4 11 -13 11 -9 0
-15 -5 -13 -11z"/>
<path d="M625 1500 c-3 -5 1 -10 10 -10 9 0 13 5 10 10 -3 6 -8 10 -10 10 -2
0 -7 -4 -10 -10z"/>
<path d="M1261 1284 c0 -11 3 -14 6 -6 3 7 2 16 -1 19 -3 4 -6 -2 -5 -13z"/>
<path d="M377 1203 c-13 -12 -7 -51 8 -57 8 -3 15 -2 16 2 0 4 3 19 5 35 5 26
-12 38 -29 20z"/>
<path d="M359 1113 c-21 -25 -39 -70 -39 -97 0 -26 24 -51 39 -41 24 14 50
-34 57 -107 5 -40 7 -77 6 -81 -1 -4 4 -15 13 -23 8 -9 15 -30 15 -48 0 -17 7
-59 16 -91 9 -33 16 -67 16 -75 -1 -32 19 -154 27 -164 5 -6 11 -29 14 -51 3
-22 10 -52 15 -65 11 -29 12 -33 12 -60 0 -11 5 -20 11 -20 5 0 7 5 4 10 -3 6
3 10 14 10 18 0 21 6 21 40 0 22 -4 40 -8 40 -19 0 -33 58 -39 152 -3 54 -10
98 -15 98 -4 0 -8 18 -8 39 0 22 -6 46 -13 53 -20 20 -45 196 -33 236 5 18 15
32 22 32 17 0 18 17 2 23 -8 3 -6 6 4 6 11 1 15 6 12 16 -4 9 1 18 12 22 38
16 26 33 -24 33 -51 0 -72 12 -72 42 0 10 -7 18 -16 18 -8 0 -12 5 -9 10 3 6
2 10 -3 10 -5 0 -8 10 -8 22 1 28 -25 35 -45 11z"/>
<path d="M2226 1111 c-12 -34 2 -131 20 -131 16 0 19 41 5 56 -6 5 -11 29 -13
54 -3 38 -4 41 -12 21z"/>
<path d="M508 1013 c6 -2 18 -2 25 0 6 3 1 5 -13 5 -14 0 -19 -2 -12 -5z"/>
<path d="M813 986 c-6 -8 -13 -22 -15 -32 -3 -17 5 -20 60 -24 34 -3 62 -9 62
-15 0 -6 33 -11 75 -13 44 -2 75 1 75 7 0 5 -24 8 -57 6 -64 -5 -54 0 20 10
47 6 48 7 45 41 l-2 34 -126 0 c-92 -1 -128 -4 -137 -14z"/>
<path d="M1123 935 c0 -22 2 -30 4 -17 2 12 2 30 0 40 -3 9 -5 -1 -4 -23z"/>
<path d="M560 946 c0 -7 10 -17 23 -21 l22 -7 -25 -8 c-20 -7 -17 -8 20 -8 25
0 37 2 27 5 -12 3 -16 10 -12 21 3 8 0 19 -7 24 -20 12 -48 9 -48 -6z"/>
<path d="M2262 815 c0 -16 2 -22 5 -12 2 9 2 23 0 30 -3 6 -5 -1 -5 -18z"/>
<path d="M2238 733 c-15 -4 -16 -7 -5 -17 19 -20 45 -16 39 6 -2 10 -7 17 -11
17 -3 -1 -14 -3 -23 -6z"/>
<path d="M1508 603 c-27 -7 -23 -56 6 -79 14 -10 23 -21 20 -26 -3 -4 1 -16 7
-26 12 -19 13 -19 38 4 25 23 25 24 6 39 -11 8 -26 12 -32 10 -15 -5 -17 11
-3 20 16 10 12 52 -6 59 -9 3 -16 5 -17 5 -1 -1 -10 -3 -19 -6z"/>
<path d="M4145 601 c-3 -5 -1 -12 5 -16 5 -3 10 1 10 9 0 18 -6 21 -15 7z"/>
<path d="M1590 530 c0 -5 7 -10 15 -10 8 0 15 5 15 10 0 6 -7 10 -15 10 -8 0
-15 -4 -15 -10z"/>
<path d="M4291 434 c0 -11 3 -14 6 -6 3 7 2 16 -1 19 -3 4 -6 -2 -5 -13z"/>
<path d="M1478 413 c7 -3 16 -2 19 1 4 3 -2 6 -13 5 -11 0 -14 -3 -6 -6z"/>
<path d="M3644 290 c0 -17 6 -30 14 -30 7 0 10 5 7 10 -3 6 0 10 7 10 10 0 10
2 0 9 -8 4 -13 12 -12 17 1 5 -3 10 -8 12 -5 1 -9 -11 -8 -28z"/>
<path d="M4068 263 c7 -3 16 -2 19 1 4 3 -2 6 -13 5 -11 0 -14 -3 -6 -6z"/>
</g>
</svg>
