
<svg width="100" height="100" viewBox="0 0 100 100" fill="none" xmlns="http://www.w3.org/2000/svg">
    <rect x="20" y="30" width="60" height="50" rx="5" fill="#e07a5f"/>
    <path d="M20 30L35 10L65 10L80 30" stroke="white" stroke-width="4" stroke-linecap="round" stroke-linejoin="round"/>
    <path d="M20 80L35 100L65 100L80 80" stroke="white" stroke-width="4" stroke-linecap="round" stroke-linejoin="round"/>
    <path d="M50 15 L45 22 L55 22 Z" fill="white" />
    <path d="M50 65 L45 72 L55 72 Z" fill="white" />
        <path d="M50, 20 L 40,38 L 60,38 Z" fill="#f0f0f0"/>
    <path d="M42, 30 L 40, 38 L 48, 38 Z" fill="white"/>
        <path d="M58, 30 L 60, 38 L 52, 38 Z" fill="white"/>
    <polygon points="50,0 55,15 40,18 60,18 45,15" fill="white"/>

</svg>

