<svg width="120" height="120" viewBox="0 0 120 120" fill="none" xmlns="http://www.w3.org/2000/svg">
  <!-- Circle shape using a path -->
  <path d="M 60,10 A 50,50 0 1,1 59.99,10" fill="#f0f0f0"/>

  <!-- "RM" text as a polygon (approximated using path data) -->
  <path d="M 40 40 L 40 20 100 20 z" fill="#e07a5f"/>

     <path d="M 20 20 L 180 20" stroke="blue" stroke-width="7" />

     <path d="M 0 200 C 10 10, 20 10, 50 200" stroke="red" fill="transparent" stroke-width="2"/>
     <path d="M 30 150 Q 10 50, 90 10" stroke="red" fill="transparent" stroke-width="3"/>
     <path d="M 10 150 A 70 50 0 0 1 190 150" stroke="green" fill="transparent" stroke-width="8"/>

  <!-- "k i d s" using approximate rectangles for each letter -->
  <rect x="62" y="50" width="5" height="5" fill="black"/>
  <rect x="67" y="52" width="5" height="5" fill="black"/>
  <rect x="72" y="54" width="5" height="5" fill="black"/>
  <rect x="77" y="56" width="5" height="5" fill="black"/>
  <rect x="82" y="58" width="5" height="5" fill="black"/>



</svg>